<svg width="80" height="18" viewBox="0 0 80 18" fill="none" xmlns="http://www.w3.org/2000/svg">
<path d="M18.8916 12.9667V12.9454C18.8916 10.3396 21.0026 8.31055 23.8322 8.31055C25.7411 8.31055 26.9763 9.07946 27.8072 10.1687L25.8534 11.5998C25.3144 10.959 24.7081 10.5532 23.8098 10.5532C22.5072 10.5532 21.564 11.5998 21.564 12.9026V12.924C21.564 14.2696 22.4848 15.2948 23.8098 15.2948C24.7979 15.2948 25.3593 14.8676 25.9208 14.2055L27.8746 15.5297C26.9987 16.6831 25.8085 17.5375 23.7199 17.5375C21.0475 17.5802 18.8916 15.6365 18.8916 12.9667Z" fill="#134594"></path>
<path d="M28.3906 12.9667V12.9454C28.3906 10.3396 30.5016 8.31055 33.3313 8.31055C35.2401 8.31055 36.4753 9.07946 37.3062 10.1687L35.3524 11.5998C34.8135 10.959 34.2071 10.5532 33.3088 10.5532C32.0063 10.5532 31.0631 11.5998 31.0631 12.9026V12.924C31.0631 14.2696 31.9838 15.2948 33.3088 15.2948C34.2969 15.2948 34.8584 14.8676 35.4198 14.2055L37.3736 15.5297C36.4978 16.6831 35.3075 17.5375 33.219 17.5375C30.5465 17.5802 28.3906 15.6365 28.3906 12.9667Z" fill="#134594"></path>
<path d="M38.4746 8.48047H43.2805C44.4483 8.48047 45.2792 8.75813 45.8406 9.29209C46.2224 9.65519 46.447 10.1251 46.447 10.7231V10.7445C46.447 11.7697 45.8407 12.3891 45.0097 12.7308C46.1551 13.0939 46.8737 13.692 46.8737 14.9094V14.9308C46.8737 16.4686 45.5712 17.387 43.3254 17.387H38.4971V8.48047H38.4746ZM42.6517 12.0474C43.4377 12.0474 43.8869 11.791 43.8869 11.2784V11.2571C43.8869 10.7658 43.4826 10.4882 42.7191 10.4882H41.0348V12.0474H42.6517V12.0474ZM43.011 15.422C43.797 15.422 44.2462 15.123 44.2462 14.6104V14.5677C44.2462 14.0764 43.8419 13.756 42.9661 13.756H40.9898V15.422H43.011Z" fill="#134594"></path>
<path d="M48.0635 8.48047H52.0609C54.4189 8.48047 55.946 9.63383 55.946 11.6202V11.6415C55.946 13.7347 54.2393 14.8453 51.9261 14.8453H50.6461V17.387H48.041V8.48047H48.0635ZM51.8812 12.9231C52.802 12.9231 53.3634 12.4745 53.3634 11.7697V11.7483C53.3634 10.9794 52.802 10.5736 51.8588 10.5736H50.6461V12.9231H51.8812Z" fill="#134594"></path>
<path fill-rule="evenodd" clip-rule="evenodd" d="M17.076 7.72461H11.7473V10.6933H6.95996V14.3477H2.625V18.0014H17.0758V14.3477H17.068V10.9504H17.076V7.72461Z" fill="url(#paint0_linear_648_1289)"></path>
<path d="M13.7932 1.25797L13.642 2.15398L15.1804 2.38729L1.04124 12.1274L1.60191 12.8638L15.7411 3.12372L15.4942 4.58682L16.4363 4.7297L16.9415 1.73546L13.7932 1.25797Z" fill="url(#paint1_linear_648_1289)"></path>
<path d="M63.5546 17.2542H66.0101V15.57H67.1725V13.7743H66.0101V8.52356H63.4501L58.709 13.8734L59.1269 15.57H63.5546V17.2542ZM61.3734 13.7867L63.5546 11.2976V13.7867H61.3734Z" fill="#134594"></path>
<path d="M68.1058 17.2542H70.6918V14.8393H68.1058V17.2542Z" fill="#134594"></path>
<path d="M75.7549 17.4276C78.3671 17.4276 79.9997 15.3718 79.9997 12.9198V12.8951C79.9997 10.4431 78.3802 8.41211 75.781 8.41211C73.1819 8.41211 71.5362 10.4678 71.5362 12.9198V12.9446C71.5362 15.3966 73.1427 17.4276 75.7549 17.4276ZM75.781 15.2975C74.7623 15.2975 74.0831 14.3068 74.0831 12.9198V12.8951C74.0831 11.5081 74.7492 10.5421 75.7549 10.5421C76.7606 10.5421 77.4528 11.5452 77.4528 12.9198V12.9446C77.4528 14.3192 76.7998 15.2975 75.781 15.2975Z" fill="#134594"></path>
<defs>
<linearGradient id="paint0_linear_648_1289" x1="2.625" y1="12.5662" x2="17.2451" y2="12.5662" gradientUnits="userSpaceOnUse">
<stop stop-color="#00C6FF"></stop>
<stop offset="1" stop-color="#0072FF"></stop>
</linearGradient>
<linearGradient id="paint1_linear_648_1289" x1="5.44019" y1="9.50554" x2="16.5951" y2="1.01291" gradientUnits="userSpaceOnUse">
<stop stop-color="#00C6FF"></stop>
<stop offset="1" stop-color="#0072FF"></stop>
</linearGradient>
</defs>
</svg>
