<svg width="105" height="61" viewBox="0 0 105 61" fill="none" xmlns="http://www.w3.org/2000/svg">
<g clip-path="url(#clip0_9167_8963)">
<path d="M81.8097 33.3055H71.9006C69.6642 33.3055 67.8551 35.1148 67.8551 37.3601V50.7058C67.8551 52.942 69.6642 54.7603 71.9006 54.7603H81.8097C84.0461 54.7603 85.8554 52.9513 85.8554 50.7058V37.351C85.8644 35.1148 84.0461 33.3055 81.8097 33.3055ZM81.5188 39.951H75.3188V42.3421H81.2188V45.233H75.3188V48.1057H81.5188V50.9694H72.2006V37.0873H81.5278V39.951H81.5188Z" fill="#002A4B"></path>
<path d="M39.6095 33.3055H36.073L27.1548 54.7512H32.4186L33.8005 51.1238H41.8641L43.2458 54.7512H48.5096L39.6095 33.3055ZM35.4821 46.6875L37.855 40.5056L40.1914 46.6875H35.4821Z" fill="#002A4B"></path>
<path d="M65.8823 33.3059L57.2641 54.7514H53.7275L45.082 33.3059H50.4094L55.5095 46.7241L60.5277 33.3059H65.8823Z" fill="#002A4B"></path>
<path d="M27.9275 37.2694L23.2548 52.5057C22.8455 53.8421 21.6093 54.7512 20.2093 54.7512H20.182C18.8092 54.7512 17.5911 53.8694 17.1638 52.5695L14.5092 44.5785C14.2638 43.8329 13.2092 43.8329 12.9637 44.5785L10.2819 52.5786C9.84553 53.8785 8.63643 54.7512 7.2637 54.7512C5.86369 54.7512 4.62731 53.8331 4.21822 52.4966L0 41.2783H3.24548C4.30913 41.2783 5.25459 41.9785 5.55459 43.0056L6.23642 45.6603C6.69097 47.2057 8.80915 47.3786 9.50007 45.924L11.0365 40.0329C11.4183 38.8693 12.5001 38.0874 13.7274 38.0874C14.9456 38.0874 16.0274 38.8693 16.4092 40.0239L17.991 45.9603C18.7001 47.3967 20.8092 47.2239 21.2547 45.6785L23.3456 36.0511L21.0547 35.442L27.4365 30.2601L30.4003 37.9239L27.9275 37.2694Z" fill="#002A4B"></path>
<path d="M17.8457 4.99625V26.4419H12.8912L4.82745 13.3054V26.4419H0.000152588V4.99625H4.92747L13.0184 18.0691V4.99625H17.8457Z" fill="#006EC6"></path>
<path d="M34.791 4.99625L30.7727 11.5236L30.8184 11.5963L30.8365 11.6236L31.3364 12.4418L32.7092 14.5327L33.5365 15.7781L40.5455 4.99625H34.791Z" fill="#006EC6"></path>
<path d="M33.5364 15.8055L31.3091 19.2782V19.2692L30.9728 19.8055L30.7455 20.1601L34.7637 26.4419H40.5457L33.5364 15.8055Z" fill="#006EC6"></path>
<path d="M47.8095 9.42356H41.5367V4.99625H58.946V9.42356H52.7004V26.4419H47.8095V9.42356Z" fill="#006EC6"></path>
<path d="M33.5367 15.7786V15.7945V15.8025L33.5448 15.7865L33.5367 15.7786Z" fill="#006EC6"></path>
<path d="M30.9186 14.5327L29.5367 12.4418L29.0367 11.6236L29.0185 11.5963L24.9549 4.99625H19.173L24.9458 13.8872L26.1821 15.7963L24.755 17.9691L19.2003 26.4419H24.9912L26.3095 24.3509L26.5095 24.0328L29.1731 19.8055L29.5095 19.2691L29.5186 19.2782L31.7459 15.7872L30.9186 14.5327Z" fill="#002A4B"></path>
<path opacity="0.25" d="M34.7912 4.99643L30.7729 11.5238L30.8184 11.5965L30.8365 11.6237L31.3366 12.4419L32.7094 14.5329L33.5367 15.7783L40.5458 4.99643H34.7912Z" fill="url(#paint0_linear_9167_8963)"></path>
<path opacity="0.25" d="M33.5367 15.8058L31.3093 19.2785V19.2694L30.973 19.8058L30.7457 20.1603L34.7639 26.4422H40.5458L33.5367 15.8058Z" fill="url(#paint1_linear_9167_8963)"></path>
<path opacity="0.25" d="M23.3456 36.0512L27.9274 37.2694L26.2183 42.8514L22.1183 41.7059L23.3456 36.0512Z" fill="url(#paint2_linear_9167_8963)"></path>
<path opacity="0.25" d="M52.7003 9.42374H47.8094V15.342H52.7003V9.42374Z" fill="url(#paint3_linear_9167_8963)"></path>
<path opacity="0.25" d="M13.0184 18.0694L17.8457 25.9422V10.733L13.0184 12.4694V17.9421V18.0694Z" fill="url(#paint4_linear_9167_8963)"></path>
<path opacity="0.25" d="M4.82731 13.4056L0 5.53284V20.7511L4.82731 19.0148V13.542V13.4056Z" fill="url(#paint5_linear_9167_8963)"></path>
<path opacity="0.25" d="M33.7913 51.115L35.4822 46.6877H40.1913L41.855 51.115H33.7913Z" fill="url(#paint6_linear_9167_8963)"></path>
<path opacity="0.25" d="M55.5096 46.7239L57.9368 53.0876L62.3006 42.2149L58.546 38.6148L55.5096 46.7239Z" fill="url(#paint7_linear_9167_8963)"></path>
<path d="M90.8414 49.5707V48.4704H96.0252V49.5707H94.0928V54.7822H92.7737V49.5707H90.8414Z" fill="#002A4B"></path>
<path d="M96.879 48.4704H98.5247L100.263 52.7112H100.337L102.075 48.4704H103.721V54.7822H102.426V50.674H102.374L100.741 54.7515H99.8592L98.2258 50.6586H98.1732V54.7822H96.879V48.4704Z" fill="#002A4B"></path>
</g>
<defs>
<linearGradient id="paint0_linear_9167_8963" x1="31.1614" y1="12.7381" x2="40.7465" y2="5.24941" gradientUnits="userSpaceOnUse">
<stop></stop>
<stop offset="0.0702074" stop-opacity="0.9298"></stop>
<stop offset="1" stop-opacity="0"></stop>
</linearGradient>
<linearGradient id="paint1_linear_9167_8963" x1="40.5246" y1="26.4698" x2="31.1722" y2="18.6222" gradientUnits="userSpaceOnUse">
<stop stop-opacity="0"></stop>
<stop offset="0.9298" stop-opacity="0.9298"></stop>
<stop offset="1"></stop>
</linearGradient>
<linearGradient id="paint2_linear_9167_8963" x1="24.1296" y1="42.2923" x2="25.6402" y2="36.6549" gradientUnits="userSpaceOnUse">
<stop stop-opacity="0"></stop>
<stop offset="1"></stop>
</linearGradient>
<linearGradient id="paint3_linear_9167_8963" x1="50.2548" y1="15.3443" x2="50.2548" y2="9.42685" gradientUnits="userSpaceOnUse">
<stop stop-opacity="0"></stop>
<stop offset="0.9298" stop-opacity="0.9298"></stop>
<stop offset="1"></stop>
</linearGradient>
<linearGradient id="paint4_linear_9167_8963" x1="15.4293" y1="25.9455" x2="15.4293" y2="10.7321" gradientUnits="userSpaceOnUse">
<stop></stop>
<stop offset="0.0702074" stop-opacity="0.9298"></stop>
<stop offset="1" stop-opacity="0"></stop>
</linearGradient>
<linearGradient id="paint5_linear_9167_8963" x1="2.41541" y1="5.53392" x2="2.41541" y2="20.7474" gradientUnits="userSpaceOnUse">
<stop></stop>
<stop offset="0.0702074" stop-opacity="0.9298"></stop>
<stop offset="1" stop-opacity="0"></stop>
</linearGradient>
<linearGradient id="paint6_linear_9167_8963" x1="33.793" y1="48.9041" x2="41.8534" y2="48.9041" gradientUnits="userSpaceOnUse">
<stop></stop>
<stop offset="0.0702074" stop-opacity="0.9298"></stop>
<stop offset="1" stop-opacity="0"></stop>
</linearGradient>
<linearGradient id="paint7_linear_9167_8963" x1="55.3783" y1="47.0631" x2="62.9906" y2="43.8319" gradientUnits="userSpaceOnUse">
<stop></stop>
<stop offset="0.0702074" stop-opacity="0.9298"></stop>
<stop offset="1" stop-opacity="0"></stop>
</linearGradient>
<clipPath id="clip0_9167_8963">
<rect width="103.819" height="49.9628" fill="white" transform="translate(0 4.99625)"></rect>
</clipPath>
</defs>
</svg>
